<svg width="294" height="293" viewBox="0 0 294 293" fill="none" xmlns="http://www.w3.org/2000/svg">
    <path fill-rule="evenodd" clip-rule="evenodd"
          d="M151 15H143C120.909 15 103 32.9086 103 55V74H88V55C88 24.6243 112.624 0 143 0H151C181.376 0 206 24.6243 206 55V176H191V55C191 32.9086 173.091 15 151 15ZM191 219V238C191 260.091 173.091 278 151 278H143C120.909 278 103 260.091 103 238V117H88V238C88 268.376 112.624 293 143 293H151C181.376 293 206 268.376 206 238V219H191Z"
          fill="#fff"/>
    <path fill-rule="evenodd" clip-rule="evenodd"
          d="M177 87.5L55.5 87.5C25.1243 87.5 0.500003 112.124 0.5 142.5V150.5C0.5 180.876 25.1244 205.5 55.5 205.5H74V190.5H55.5C33.4086 190.5 15.5 172.591 15.5 150.5V142.5C15.5 120.409 33.4086 102.5 55.5 102.5L177 102.5V87.5ZM220 102.5L238.5 102.5C260.591 102.5 278.5 120.409 278.5 142.5V150.5C278.5 172.591 260.591 190.5 238.5 190.5L117 190.5V205.5L238.5 205.5C268.876 205.5 293.5 180.876 293.5 150.5V142.5C293.5 112.124 268.876 87.5 238.5 87.5L220 87.5V102.5Z"
          fill="#fff"/>
</svg>
