<svg xmlns="http://www.w3.org/2000/svg" width="1922" height="712"><defs><linearGradient id="grd1" gradientUnits="userSpaceOnUse" x1="1041.452" y1="-36.888" x2="1041.452" y2="911.557"><stop offset="0" stop-color="#302a57"/><stop offset="1" stop-color="#2a254b"/></linearGradient></defs><style/><g id="подвал"><path id="Прямоугольник 2" d="M-2 0h1924v712H-2V0z" fill="#fff"/><path id="Фигура 15" d="M886 127.56s725.69 222.93 1045-125c349.07-380.35 29 198 29 198l-853 224-221-297z" fill="#aba6cc"/><path id="Фигура 14" d="M-1 159.56s250.44-110 501-110 575.19 181 961 181c468.82 0 592.69-343.51 618-252 25.31 91.51-55 933-55 933H0l-1-752z" fill="url(#grd1)"/><path id="Фигура 14 копия" d="M-9.35 135.66S248.88 33.98 503.64 42.31c254.77 8.33 578.92 200.12 971.2 212.94 476.68 15.59 613.86-323.8 636.6-231.45 22.75 92.35-86.42 931.16-86.42 931.16L-32.92 887.68l23.57-752.02z" opacity=".231" fill="none" stroke="#7972a5" stroke-linecap="round" stroke-width="2"/></g></svg>