<svg width="294" height="293" fill="none" xmlns="http://www.w3.org/2000/svg"><path fill-rule="evenodd" clip-rule="evenodd" d="M151 15h-8c-22.091 0-40 17.909-40 40v19H88V55c0-30.376 24.624-55 55-55h8c30.376 0 55 24.624 55 55v121h-15V55c0-22.091-17.909-40-40-40zm40 204v19c0 22.091-17.909 40-40 40h-8c-22.091 0-40-17.909-40-40V117H88v121c0 30.376 24.624 55 55 55h8c30.376 0 55-24.624 55-55v-19h-15z" fill="#fff"/><path fill-rule="evenodd" clip-rule="evenodd" d="M177 87.5H55.5c-30.376 0-55 24.624-55 55v8c0 30.376 24.624 55 55 55H74v-15H55.5c-22.091 0-40-17.909-40-40v-8c0-22.091 17.909-40 40-40H177v-15zm43 15h18.5c22.091 0 40 17.909 40 40v8c0 22.091-17.909 40-40 40H117v15h121.5c30.376 0 55-24.624 55-55v-8c0-30.376-24.624-55-55-55H220v15z" fill="#fff"/></svg>