<svg xmlns="http://www.w3.org/2000/svg" width="456" height="744"><defs><linearGradient id="grd1" gradientUnits="userSpaceOnUse" x1="241.5" y1="-8.334" x2="241.5" y2="774"><stop offset="0" stop-color="#302a57"/><stop offset="1" stop-color="#2a254b"/></linearGradient></defs><style/><g id="подвал"><path id="Прямоугольник 2" d="M.28.37H455.5v742.66H.28V.37z" fill="#fff"/><path id="Фигура 15" d="M166.31 18.21S360.07 85.17 449.5-5.74c97.77-99.37 5.97 53.71 5.97 53.71l-232.3 52.46-56.86-82.22z" fill="#aba6cc"/><path id="Фигура 14" d="M.55 38.14s59.26-26.02 118.54-26.02c59.28 0 136.09 42.82 227.37 42.82 110.92 0 140.23-81.27 146.22-59.62C498.66 16.97 511 774 511 774l-539-1L.55 38.14z" fill="url(#grd1)"/><path id="Фигура 14 копия" d="M-9.56 31.11S53.86 6.13 116.43 8.18c62.58 2.04 142.19 49.15 238.54 52.3 117.08 3.83 150.77-79.53 156.35-56.85C516.91 26.31 506 826 506 826l-521-38 5.44-756.89z" opacity=".231" fill="none" stroke="#7972a5" stroke-linecap="round" stroke-width="2"/></g></svg>